<svg width="16" height="16" viewBox="0 0 16 16" fill="none" xmlns="http://www.w3.org/2000/svg">
<path d="M6.53073 2.46952L11.5307 7.46952C11.6007 7.5392 11.6561 7.622 11.694 7.71316C11.7318 7.80432 11.7513 7.90206 11.7513 8.00077C11.7513 8.09948 11.7318 8.19722 11.694 8.28839C11.6561 8.37955 11.6007 8.46235 11.5307 8.53202L6.53073 13.532C6.38984 13.6729 6.19874 13.7521 5.99948 13.7521C5.80023 13.7521 5.60913 13.6729 5.46823 13.532C5.32734 13.3911 5.24818 13.2 5.24818 13.0008C5.24818 12.8015 5.32734 12.6104 5.46823 12.4695L9.93761 8.00015L5.46761 3.53078C5.32671 3.38988 5.24756 3.19878 5.24756 2.99953C5.24756 2.80027 5.32671 2.60917 5.46761 2.46828C5.60851 2.32738 5.7996 2.24822 5.99886 2.24822C6.19812 2.24822 6.38921 2.32738 6.53011 2.46828L6.53073 2.46952Z" fill="black" fill-opacity="0.6"/>
</svg>
