<svg width="125" height="20" viewBox="0 0 125 20" fill="none" xmlns="http://www.w3.org/2000/svg">
<path d="M9.135 19.588C3.045 19.567 0.168 17.677 0.315 13.099H5.544C5.607 14.296 6.615 15.031 9.135 15.052C11.361 15.073 12.39 14.443 12.39 13.624C12.39 13.057 12.075 12.469 10.353 12.217L8.085 11.86C4.746 11.314 0.735 10.915 0.735 6.4C0.735 2.914 3.57 0.772 9.177 0.772C14.238 0.772 17.766 2.179 17.661 7.219H12.474C12.264 6.043 11.277 5.308 9.051 5.308C7.119 5.308 6.321 5.896 6.321 6.694C6.321 7.198 6.636 7.807 7.98 8.017L9.849 8.332C13.356 8.92 18.165 9.025 18.165 13.855C18.165 17.698 15.183 19.609 9.135 19.588ZM31.9289 1.36H37.7459V19H31.9289V12.616H25.0829V19H19.2659V1.36H25.0829V7.744H31.9289V1.36ZM48.9051 19.588C42.8361 19.588 38.9091 15.829 38.9091 10.18C38.9091 4.531 42.8361 0.772 48.9051 0.772C54.9741 0.772 58.9011 4.531 58.9011 10.18C58.9011 15.829 54.9741 19.588 48.9051 19.588ZM48.9051 14.569C51.2151 14.569 53.1261 12.973 53.1261 10.18C53.1261 7.387 51.2151 5.791 48.9051 5.791C46.5951 5.791 44.6841 7.387 44.6841 10.18C44.6841 12.973 46.5951 14.569 48.9051 14.569ZM60.0682 19V1.36H70.0852C74.8942 1.36 77.7502 3.502 77.7502 8.248C77.7502 12.994 74.8942 15.136 70.1062 15.136H65.8852V19H60.0682ZM65.8852 10.306H69.5812C70.9882 10.306 71.8912 9.613 71.8912 8.248C71.8912 6.883 70.9882 6.19 69.6022 6.19H65.8852V10.306ZM80.6603 19.336C79.0853 19.336 77.7623 18.034 77.7623 16.48C77.7623 14.926 79.0853 13.624 80.6603 13.624C82.2353 13.624 83.5583 14.926 83.5583 16.48C83.5583 18.034 82.2353 19.336 80.6603 19.336ZM94.6191 19.588C88.6761 19.588 84.7071 15.829 84.7071 10.18C84.7071 4.531 88.6761 0.772 94.6191 0.772C98.9241 0.772 103.334 2.662 103.922 8.626H98.3781C97.8951 6.694 96.5301 5.791 94.6191 5.791C92.3091 5.791 90.4821 7.513 90.4821 10.18C90.4821 12.847 92.3091 14.569 94.6191 14.569C96.5301 14.569 97.8951 13.666 98.3781 11.692H103.922C103.334 17.698 98.9661 19.588 94.6191 19.588ZM114.981 19.588C108.912 19.588 104.985 15.829 104.985 10.18C104.985 4.531 108.912 0.772 114.981 0.772C121.05 0.772 124.977 4.531 124.977 10.18C124.977 15.829 121.05 19.588 114.981 19.588ZM114.981 14.569C117.291 14.569 119.202 12.973 119.202 10.18C119.202 7.387 117.291 5.791 114.981 5.791C112.671 5.791 110.76 7.387 110.76 10.18C110.76 12.973 112.671 14.569 114.981 14.569Z" fill="black"/>
</svg>
