<?xml version="1.0" encoding="utf-8"?>
<svg xmlns="http://www.w3.org/2000/svg" xmlns:xlink="http://www.w3.org/1999/xlink" style="margin: auto; background: none; display: block; shape-rendering: auto;" width="200px" height="200px" viewBox="0 0 100 100" preserveAspectRatio="xMidYMid">
<g transform="rotate(0 50 50)">
  <rect x="45" y="20" rx="5" ry="5" width="10" height="10" fill="#000000">
    <animate attributeName="opacity" values="1;0" keyTimes="0;1" dur="1.3333333333333333s" begin="-1.2s" repeatCount="indefinite"></animate>
  </rect>
</g><g transform="rotate(36 50 50)">
  <rect x="45" y="20" rx="5" ry="5" width="10" height="10" fill="#000000">
    <animate attributeName="opacity" values="1;0" keyTimes="0;1" dur="1.3333333333333333s" begin="-1.0666666666666667s" repeatCount="indefinite"></animate>
  </rect>
</g><g transform="rotate(72 50 50)">
  <rect x="45" y="20" rx="5" ry="5" width="10" height="10" fill="#000000">
    <animate attributeName="opacity" values="1;0" keyTimes="0;1" dur="1.3333333333333333s" begin="-0.9333333333333333s" repeatCount="indefinite"></animate>
  </rect>
</g><g transform="rotate(108 50 50)">
  <rect x="45" y="20" rx="5" ry="5" width="10" height="10" fill="#000000">
    <animate attributeName="opacity" values="1;0" keyTimes="0;1" dur="1.3333333333333333s" begin="-0.8s" repeatCount="indefinite"></animate>
  </rect>
</g><g transform="rotate(144 50 50)">
  <rect x="45" y="20" rx="5" ry="5" width="10" height="10" fill="#000000">
    <animate attributeName="opacity" values="1;0" keyTimes="0;1" dur="1.3333333333333333s" begin="-0.6666666666666666s" repeatCount="indefinite"></animate>
  </rect>
</g><g transform="rotate(180 50 50)">
  <rect x="45" y="20" rx="5" ry="5" width="10" height="10" fill="#000000">
    <animate attributeName="opacity" values="1;0" keyTimes="0;1" dur="1.3333333333333333s" begin="-0.5333333333333333s" repeatCount="indefinite"></animate>
  </rect>
</g><g transform="rotate(216 50 50)">
  <rect x="45" y="20" rx="5" ry="5" width="10" height="10" fill="#000000">
    <animate attributeName="opacity" values="1;0" keyTimes="0;1" dur="1.3333333333333333s" begin="-0.4s" repeatCount="indefinite"></animate>
  </rect>
</g><g transform="rotate(252 50 50)">
  <rect x="45" y="20" rx="5" ry="5" width="10" height="10" fill="#000000">
    <animate attributeName="opacity" values="1;0" keyTimes="0;1" dur="1.3333333333333333s" begin="-0.26666666666666666s" repeatCount="indefinite"></animate>
  </rect>
</g><g transform="rotate(288 50 50)">
  <rect x="45" y="20" rx="5" ry="5" width="10" height="10" fill="#000000">
    <animate attributeName="opacity" values="1;0" keyTimes="0;1" dur="1.3333333333333333s" begin="-0.13333333333333333s" repeatCount="indefinite"></animate>
  </rect>
</g><g transform="rotate(324 50 50)">
  <rect x="45" y="20" rx="5" ry="5" width="10" height="10" fill="#000000">
    <animate attributeName="opacity" values="1;0" keyTimes="0;1" dur="1.3333333333333333s" begin="0s" repeatCount="indefinite"></animate>
  </rect>
</g>
<!-- [ldio] generated by https://loading.io/ --></svg>